/* XPM */
static char *result[] = {
/* columns rows colors chars-per-pixel */
"64 64 250 2 ",
"   c #121B0B",
".  c #12160D",
"X  c #14250B",
"o  c #313010",
"O  c #225912",
"+  c #53671A",
"@  c #B4160B",
"#  c #C31D11",
"$  c #A76822",
"%  c #F4707B",
"&  c #E33D47",
"*  c #20A217",
"=  c #5C981A",
"-  c #528E19",
";  c #639919",
":  c #5EA319",
">  c #68A81B",
",  c #73AD18",
"<  c #78B816",
"1  c #5B9321",
"2  c #629825",
"3  c #68A628",
"4  c #72B32C",
"5  c #79B828",
"6  c #6BAC33",
"7  c #75AD37",
"8  c #74B532",
"9  c #7CBC36",
"0  c #7CBE39",
"q  c #77B835",
"w  c #6FB130",
"e  c #5FA126",
"r  c #32DD14",
"t  c #7CC319",
"y  c #4ACB29",
"u  c #79C32B",
"i  c #7DC336",
"p  c #7DC239",
"a  c #7EC938",
"s  c #60EE1F",
"d  c #71B443",
"f  c #71CF4F",
"g  c #81B81D",
"h  c #85BA28",
"j  c #80BD36",
"k  c #89B935",
"l  c #8FB036",
"z  c #A4B132",
"x  c #AD9D27",
"c  c #83C81E",
"v  c #8BC827",
"b  c #92CD2D",
"n  c #94C82B",
"m  c #8CD628",
"M  c #94D32D",
"N  c #94DA2E",
"B  c #9AD82E",
"V  c #82C436",
"C  c #82CB36",
"Z  c #84C43C",
"A  c #82CC3B",
"S  c #8CCB3E",
"D  c #8BC63D",
"F  c #95C83B",
"G  c #84D339",
"H  c #8ADA3A",
"J  c #95DB30",
"K  c #97DA35",
"L  c #ADD838",
"P  c #93E43E",
"I  c #ADE532",
"U  c #B99753",
"Y  c #8BB04D",
"T  c #AFB34B",
"R  c #8EAD6C",
"E  c #AAB976",
"W  c #D38D6E",
"Q  c #CBB769",
"!  c #E6B96F",
"~  c #C49A59",
"^  c #8CC944",
"/  c #97CC43",
"(  c #9DD345",
")  c #97D846",
"_  c #9CD457",
"`  c #A7C645",
"'  c #A7D848",
"]  c #B6DB48",
"[  c #A4CB58",
"{  c #AAD655",
"}  c #B4DA57",
"|  c #BEC558",
" . c #9AE644",
".. c #99F040",
"X. c #A8E748",
"o. c #B7E646",
"O. c #ACE954",
"+. c #B5E758",
"@. c #B2F35A",
"#. c #A9F151",
"$. c #99CA65",
"%. c #B1D26E",
"&. c #B7E664",
"*. c #BBF266",
"=. c #B5F178",
"-. c #9FE47F",
";. c #C3E44B",
":. c #C8E948",
">. c #D6ED4B",
",. c #C5E953",
"<. c #CAF455",
"1. c #CBF954",
"2. c #C8F554",
"3. c #D5FA5B",
"4. c #D9EE4E",
"5. c #CFD271",
"6. c #F8C87C",
"7. c #ECCB76",
"8. c #D9FE64",
"9. c #CBED71",
"0. c #E1FF6C",
"q. c #E4FF72",
"w. c #EAFF75",
"e. c #EDFF7B",
"r. c #E5F77F",
"t. c #C5D051",
"y. c #FF7B8F",
"u. c #7AFEE9",
"i. c #77FCE8",
"p. c #ADB68A",
"a. c #FF8696",
"s. c #F88C92",
"d. c #DCB68B",
"f. c #DBA891",
"g. c #E5B691",
"h. c #FF91A8",
"j. c #DBB6A9",
"k. c #C9B3A9",
"l. c #E7B5A7",
"z. c #DC9D91",
"x. c #8CDB8B",
"c. c #B0D28F",
"v. c #98FA8C",
"b. c #8EFF99",
"n. c #9BFF94",
"m. c #96FF99",
"M. c #95E987",
"N. c #A2FD93",
"B. c #A6FC98",
"V. c #B6FB9A",
"C. c #B4E892",
"Z. c #B9D0B1",
"A. c #89FFA8",
"S. c #94FFAB",
"D. c #98FEA7",
"F. c #8EFFB3",
"G. c #9AFFB5",
"H. c #99E3AD",
"J. c #A7FAAA",
"K. c #BAFFA7",
"L. c #A8FFB7",
"P. c #B7F8B7",
"I. c #B3E9A9",
"U. c #D7C689",
"Y. c #D7D88A",
"T. c #D4D698",
"R. c #D0D494",
"E. c #F7CB85",
"W. c #FDD383",
"Q. c #F8D687",
"!. c #FBD999",
"~. c #E7CF8E",
"^. c #D8E687",
"/. c #D6F386",
"(. c #CBEA92",
"). c #E3EA8D",
"_. c #EBFE84",
"`. c #E4ED95",
"'. c #F4FB98",
"]. c #F4EF94",
"[. c #D7D9A5",
"{. c #C5C5B9",
"}. c #D8C8B9",
"|. c #C9D9B9",
" X c #D0D5AB",
".X c #E7CBA7",
"XX c #FFDEA2",
"oX c #E5D4B6",
"OX c #E7D2AD",
"+X c #D5E6BB",
"@X c #C7FDB7",
"#X c #D2FEBA",
"$X c #CFEFAC",
"%X c #F9E6AA",
"&X c #EAF4A6",
"*X c #E7E8B7",
"=X c #EAF5B8",
"-X c #F9F6B8",
";X c #F6EFAD",
":X c #B1D6C8",
">X c #91F9CA",
",X c #A9FFC3",
"<X c #B6FFC8",
"1X c #A6FBD9",
"2X c #BCFDD4",
"3X c #AFE5CA",
"4X c #86FBE6",
"5X c #9AFFF2",
"6X c #94FCEA",
"7X c #A4FBEB",
"8X c #B3FCF1",
"9X c #D6D6C9",
"0X c #D1D7CA",
"qX c #E8DBC9",
"wX c #ECD7D4",
"eX c #DAE8C8",
"rX c #C7FBC7",
"tX c #DAFBC7",
"yX c #C7FDD7",
"uX c #D7FADA",
"iX c #CCEAD8",
"pX c #F9EDC6",
"aX c #E3F9CC",
"sX c #FAF9C8",
"dX c #E7E9D9",
"fX c #F2E7D6",
"gX c #E7FAD9",
"hX c #FEFEDA",
"jX c #F8F8D7",
"kX c #E8E6C6",
"lX c #D8FDE7",
"zX c #C9FEF7",
"xX c #D7FEF8",
"cX c #CBF2EA",
"vX c #EAECE7",
"bX c #F4EEE8",
"nX c #E5FFEC",
"mX c #EAF9E7",
"MX c #F3F3ED",
"NX c #F3FCEB",
"BX c #FBFEEC",
"VX c #F7F9E5",
"CX c #ECFEF3",
"ZX c #E7FBF7",
"AX c #F5FCF4",
"SX c #FBFDF5",
"DX c #F5FEFB",
"FX c #FEFFFE",
"GX c #F6F5F1",
"HX c None",
/* pixels */
"HXHXHXHXHXHXHXHXHXHXHXHXHXHXHXHXHXHXHXHXHXHXHXHXHXHXHXHXHXHXHXHXHXHXHXHXHXHXHXHXHXHXHXHXHXHXHXHXHXHXHXHXHXHXHXHXHXHXHXHXHXHXHXHX",
"HXHXHXHXHXHXHXHXHXHXHXHXHXHXHXHXHXHXHXHXHXHXHXHXHXHXHX@X@X#XrXrXrXyXyX1X1XHXHXHXHXHXHXHXHXHXHXHXHXHXHXHXHXHXHXHXHXHXHXHXHXHXHXHX",
"HXHXHXHXHXHXHXHXHXHXHXHXHXHXHXHXHXHXHXHXHXHXHX#XaXgXBXSXSXFXFXFXFXFXFXFXFXZXxX8X5XHXHXHXHXHXHXHXHXHXHXHXHXHXHXHXHXHXHXHXHXHXHXHX",
"HXHXHXHXHXHXHXHXHXHXHXHXHXHXHXHXHXHXHXHX@XaXBXSXFXFXSXSXBXVXVXgXVXmXNXSXFXFXFXFXFXZX8X5XHXHXHXHXHXHXHXHXHXHXHXHXHXHXHXHXHXHXHXHX",
"HXHXHXHXHXHXHXHXHXHXHXHXHXHXHXHXHXHXK.tXSXFXFXBXaX#XK.B.m.m.m.b.b.b.b.m.J.P.yXCXFXFXFXDXzX5XHXHXHXHXHXHXHXHXHXHXHXHXHXHXHXHXHXHX",
"HXHXHXHXHXHXHXHXHXHXHXHXHXHXHXHXB.tXSXFXVXaXK.n.m.b.b.D.S.G.D.G.D.G.G.D.S.A.b.A.G.2XnXFXFXDXzX4XHXHXHXHXHXHXHXHXHXHXHXHXHXHXHXHX",
"HXHXHXHXHXHXHXHXHXHXHXHXHXHXB.@XBXSXaX@XN.m.m.D.L.L.<X<XyXyXyXyXyXyXyX2X2X,XL.G.F.A.F.>XlXDXFXZX1XHXHXHXHXHXHXHXHXHXHXHXHXHXHXHX",
"HXHXHXHXHXHXHXHXHXHXHXHXHXV.gXSXaXV.N.J.J.L.<XrXyXlXlXnXnXCXCXCXCXAXCXnXnXlXlXyX<X,XG.A.F.,XlXDXFX2X>XHXHXHXHXHXHXHXHXHXHXHXHXHX",
"HXHXHXHXHXHXHXHXHXHXHXHX$XAXAX#XB.C.P.rXrXuXlXCXCXAXDXFXFXFXFXFXFXFXFXFXFXDXCXnXnXlXyX,XG.G.F.L.lXFXlXF.HXHXHXHXHXHXHXHXHXHXHXHX",
"HXHXHXHXHXHXHXHXHXHX(.$XBXjX(.C.$XrXiXmXCXAXAXFXFXFXFXFXFXFXFXFXFXFXFXFXFXFXFXFXDXCXnXlXyX2X,XG.S.<XDXCX>XHXHXHXHXHXHXHXHXHXHXHX",
"HXHXHXHXHXHXHXHXHX(.&XSXjX(.C.@XtXuXCXAXDXSXFXFXFXFXFXFXFXFXFXFXFXFXFXFXFXFXFXFXFXFXFXCXCXlXyXyXL.S.L.SXCX>XHXHXHXHXHXHXHXHXHXHX",
"HXHXHXHXHXHXHXHXHX&XSXsX(.(.+XaXmXAXSXFXFXFXFXFXFXFXFXFXFXFXFXFXFXFXFXFXFXFXfX.X~.T.SXFXFXDXCXnXyX<XS.J.NXCXG.HXHXHXHXHXHXHXHXHX",
"HXHXHXHXHXHXHXHX`.SXsX/.R.+XgXmXAXSXFXFXFXFXFXFXFXFXFXFXFXFXFXFXFXFXFXFXFX X6.W.! T Y eXvX0X[.[. XrX<XF.J.SXnXF.HXHXHXHXHXHXHXHX",
"HXHXHXHXHXHXHX^.BXhX^.T.+XuXMXAXFXFXFXFXFXFXFXFXFXFXFXFXFXFXFXFXFXFXFXSXeXq k T Y j j 4 8 u T W.Q.Y.3X<XD.L.SXuXF.HXHXHXHXHXHXHX",
"HXHXHXHXHXHX^.sXBX).T.+XgXNXSXFXFXFXFXFXFXFXFXFXFXFXFXFXFXFXFXSXFXSXSX|.Y i 9 j V j j j i j j T Q 5.Y yX,XD.rXFX<XF.HXHXHXHXHXHX",
"HXHXHXHXHXHX&XSX&XY. XaXvXAXFXFXFXFXFXFXFXFXFXFXFXFXFXFXFXFXMXqX[.R Y i i i j i j j V j 9 i j 9 q w e c.yXL.m.gXSXD.HXHXHXHXHXHX",
"HXHXHXHXHX^.BXsX^.[.eXmXSXFXFXFXFXFXFXFXFXFXFXFXFXFXFXFXFXqXE.E.| 0 0 V j p i j j i 9 j 9 9 9 0 4 4 3 R xX2XG.B.AXuXS.HXHXHXHXHX",
"HXHXHXHXY.=XSX).T.+XgXAXFXFXFXFXFXFXFXFXFXFXFXFXFXFXFXFXvXE.6.5.k i Z 0 Z j 0 p 9 j 9 9 j 9 9 9 4 4 e = c.yX<Xm.#XFXJ.HXHXHXHXHX",
"HXHXHXHX^.SX-XY.[.dXmXFXFXFXFXFXFXSXSXFXFXFXFXFXFXvX9X+Xc.l 7 8 j Z Z p 9 i 0 9 0 8 9 9 9 9 0 0 4 4 3 = 1 d x.D.m.mXgXA.HXHXHXHX",
"HXHXHXHX=XSX).T.+XmXAXFXFXFXFXFXoXd.! ! g.OXeX X$.^ S D j Z k Y 7 7 7 p p p 0 9 3 w i 9 9 9 i q q 4 4 3 3 3 6 %.v.@XFXK.HXHXHXHX",
"HXHXHXY.BXsXY.[.dXNXSXSXFXFXFXGX!.!.E.! 6.! ! ` S S D D D Z Z Z Z ^ p 6 6 6 e - 6 0 9 9 q q p q i 9 8 4 4 8 Y C.-.v.AXaXm.HXHXHX",
"HXHXHX[.FX*XU.}.dXAXFXFXFXFXFXbX!.!.!.E.6.7.6.` F S F ^ S S Z Z e + 6 a p 6 6 0 9 9 0 9 p q q p 9 9 j 9 9 8 8 Y.-.v.tXSXB.HXHXHX",
"HXHXg.fXBXT.U.qXbXFXFXFXFXFXFXSX!.!.XX!.E.6.! ` / / / S ^ S A G S ^ 1 d p p i 0 0 i 9 q q p q p q 9 q 9 j 9 8 Y %.M.B.SX@XHXHXHX",
"HXHXg.BXfXd. XdXMXFXFXFXFXFXFXFXwXXXXXXXXX!.| L F ) ^ ^ S ) ^.=X&X} S 7 p p p i 0 p q p q p q 8 9 9 9 9 j j 8 q 6 x.n.NXaXn.HXHX",
"HXHX.XFX*Xf.OXfXGXFXFXFXFXFXFXSXbX!.XX%X%X5.' F ' / / ) _ aXSXaXC.$XC.S V p p p 8 p q p 8 q q p 9 q q 9 9 q 4 w 6 H.m.tXNXN.HXHX",
"HXHXqXFX.Xf.oXvXFXFXFXFXFXSX|.c./ T XX*X5.' ' ` ( / / ) *XFX=.r r r _ { C p p p i i p q q p q p 9 9 j 9 j 4 4 2 6 H.J.K.SXV.HXHX",
"HXHXfXGXl.d.qXMXFXFXFXMXc.D v n n h ] t.] ] ' ( ( / ) &.FX=X=.Y o O r _ ^ p 0 p i i q p p 8 q q 9 q 9 9 9 q 4 3 e H.J.B.SX@XHXHX",
"HXz.bXbXl.f.qXMXFXFXeX/ b b b V n n ' ;.] ] ' ' ( ( ' *XFX(.FXVXo   * f p a q e 6 w i p 8 p p q 9 9 9 9 9 k j 4 w f P.n.BXtXm.HX",
"HXl.GXbXg.l.wXMXGXc.b b m b b b n n L :.] ] ] ' ' ) ' jXSX..SXp.X . O y ^ p p p e 1 - = e e 3 3 3 2 7 9 9 j j 8 6 d J.n.gXgXn.HX",
"HXl.FXbXg.l.wXdX[ M H M m b b b n n t.:.;.:.] ] ' ' ] FXgX=.VXo   . O r ^ a a p p p d 6 3 3 6 3 7 q 9 9 9 j k 8 Y 5.C.m.aXVXn.HX",
"HXl.FXGXg.j.qX_ m m K M M M b b b n :.>.>.;.] ] ' ' ] SXNXs + X     O f ^ A p a i i p q 9 0 q 9 q 9 9 9 9 j j 4 T U.c.D.tXNXn.HX",
"HX}.FXGXE.j.$.N N b M J N M M M b D >.>.>.;.;.] ' X.o.bXSXs + X   X * $.S A f p i i i 9 9 0 9 9 9 9 q 9 j j 5 4 5.U.I.n.#XBXN.HX",
"HX}.FXFX~.E N N B B x x B M M b n n 4.>.>.:.;.o.o.' o.pXSXC.r O O * y C.G a a a a i i i q q q 9 9 9 9 9 k 4 4 3 T Q P.D.+XBXN.HX",
"HX9XFXSX~.H N J B $ @ $ B B M M M n 4.4.>.:.:.:.o.o.X.9.`.} ) H ) a _ ) G G G a a i i i i i p q 9 9 9 9 4 4 3 ; 2 p.rXn.#XAXN.HX",
"HX0XFXFX5.N N J L # # z N N B M M n 4.4.4.>.:.:.;.o.X.o.I  . .P H H H H G G G a a a i i i i q 9 9 9 9 9 4 4 ; 1 R nX<XB.tXVXN.HX",
"HX0XFXSX,.B J J I x n B N M M M n B :.4.>.>.>.:.:.o.X.I X. .P  . .H P H H G G a C a i i q i i 9 9 0 9 9 7 , - 1 vXlX@XB.tXVXn.HX",
"HX|.DXSXI J J J N J B J B B M M B B L 4.>.:.:.:.o.2.I o.o.o.@.O.O.) G ) H G a G a a a i i i i q 9 9 9 9 q 4 ; Y GXuX@XN.gXgXn.HX",
"HXHXDXsXI J J J J J J B B B B M B n n ` :.:.:.o.I o.<./.&X-X'.'._._._.&.S H u u G a a i i i q 4 4 4 4 4 4 4 3 E AXgXI.N.NXaXHXHX",
"HXHXmX=XB N N N N N B B B B B M M M n v F o.o.' 9./.&X'.'.'._.e.e.q.q.q.8._ u : u a C V V i 5 4 4 4 4 8 T 6.! {.mXuX$XC.BX@XHXHX",
"HXHXgX&XI J m m m m m N m M b m c v v g 5 h / ^._.`.9.9._.e.e.e.w.w.q.0.3.8.^ : > u V V V V q 3 ; ; > z E.6.! dXmXeXV.$XSX@XHXHX",
"HXHXeXkXB m c t < t t t c m v v c c g < g < < g [ 9._.e.e.e.w.w.q.w.q.8.8.1.o.k = , a C C Z 5 > ; = ; ~ ! Q }.AXgX+XC.=XSXV.HXHX",
"HXHXP.gXI %.p.{.0X{.Z.%.h < 5 < < g g g < < , , | e._.e.w.w.w.w.w.q.0.8.3.,.,.} = > u a V i 4 ; ; R 0X9XqXvXFXNXdX$X(.VXgXHXHXHX",
"HXHXHXmXsXVX|.0XvXGXGXwXwXs.z.W U U U ~ W U h h _.e.e.e.e.e.w.w.w.8.3.8.<.,.,.] : > 5 5 h z z ; p.FXFXFXFXFXFXmXeX(.(.SX&XHXHXHX",
"HXHXHXyXFXFX3X0XvXGXGXl.h.y.y.y.a.s.s.W ~ k h / _.e.e.e.w.e.w.w.0.8.3.2.,.;.,.` > > > 5 | W.6.p.FXFXFXFXFXFXSXdX$XR.=XSX(.HXHXHX",
"HXHXHXHXxXFXyX:XiXZXGXwXs.y.y.y.y.y.% U h h v ` _._.e.e.w.w.0.8.3.3.2.2.:.o.,.Y R Y 3 , 6.! f.mXFXFXFXFXFXFXmXeX[.^.VXsXHXHXHXHX",
"HXHXHXHX7XDXzX1XiXcXGXFXZXU @ & % ~ h h h v v F 8.q.0.0.0.8.8.3.1.1.2.,.,.2.[ wXFXFXvX9X}.qXFXFXFXFXFXFXSXAXgX+X(.&XFX`.HXHXHXHX",
"HXHXHXHX4X8XSX6X3XcXZXDX0X$ @ $ z l h h h c t 5 8.8.8.8.3.3.1.1.1.2.2.2.<.,.E FXSXMXFXFXSXFXFXFXFXFXFXFXDXmXeXT.^.VXsX/.HXHXHXHX",
"HXHXHXHXHXi.DXzX4X8XxXZX$.h l h k h h c g < < , F 4.3.1.1.1.1.1.1.2.2.2.,.k 4 5..X6.oX.X.XBXFXFXFXqXFXSXmXdX$XY.;XSX`.HXHXHXHXHX",
"HXHXHXHXHX4X5XDX5X6X8XvXc.Y 4 h h < h , , , < , > [ <.3.<.<.<.<.<.<.+.{ S H < Y W.6.6.W.6.E.qXfXkX%XbXAXdX+XR.).SX-X^.HXHXHXHXHX",
"HXHXHXHXHXHXu.xXDXu.6XzXcXGX9Xc.E Y Y 7 Y Y p.{.vXFXT.%.&.} +.} { ) H .. .H b 5 T W.W.W.W.W.W.sX-XsXkXdX*XT.^.hXVX^.HXHXHXHXHXHX",
"HXHXHXHXHXHXHX4XZXxXu.5XzXZXDXDXSXvXMXFXFXDXFXFXFXdX5.8.8.0.0.8.8.)  . . . .) K ) ` | 7.Q.-X-X-XsX-X*XoXT.Y.sXSX`.HXHXHXHXHXHXHX",
"HXHXHXHXHXHXHXHX6XDXzXu.7XcXiXc.{ } { {  X.XvX.XOXQ.5.w.q.0.q.q.q.)  . .X.X.X.O.X.O.#.F 7.-XsXsXsX*X[.U.Y.=XSX&XY.HXHXHXHXHXHXHX",
"HXHXHXHXHXHXHXHXu.5XFX8Xi.H.{ +.} o.+.O.O.{ Q.Q.Q.].5.e.w.w.q.} ) ) ) ) ) O.O.O.+.@.o.<.;XsXsXpX*XT.U.U.&XFX-XY.HXHXHXHXHXHXHXHX",
"HXHXHXHXHXHXHXHXHXu.7XSXiX| { { { +.} [ { @.5.!.].7.e.e.e.0.X.#.#.#.O.#.@.) O.2.&X&X`.&XjXbXkXoXU.d.U.*XSXsXY.HXHXHXHXHXHXHXHXHX",
"HXHXHXHXHXHXHXHXHXHX4X7X-XT.[ } +.9.{ } +.@.} %X].r.e._.r.+.@.@.@.@.*.#.O._ T *XVXBXBXjXvXqX.Xg.f.U.fXFXpXR.HXHXHXHXHXHXHXHXHXHX",
"HXHXHXHXHXHXHXHXHXHXHX3XpX~.].^.+.5.;X].9.' O.Y.).'.'.'.&.+.&.*.@.*.@.*.O.[ mXdXGXbXvXwXoXl.z.z..XVXSXpXU.HXHXHXHXHXHXHXHXHXHXHX",
"HXHXHXHXHXHXHXHXHXHXHXHX*XpXsX-X7.`.sX-X;X5.%.5.'.'.;X'.=.*.*.&.=.9.&.*.@.{ bXvXwXwX9Xj.z.z.l.wXSXBXoXd.HXHXHXHXHXHXHXHXHXHXHXHX",
"HXHXHXHXHXHXHXHXHXHXHXHXHXjXsXpXpX%XsXsX-XuXFXeXVXhXBXpX'./.9.9.9.=./.r.=.%.wX9X}.j.z.z.j.wXGXGXfXl.HXHXHXHXHXHXHXHXHXHXHXHXHXHX",
"HXHXHXHXHXHXHXHXHXHXHXHXHXjXjXpXaXyXhXjX|.u.4X8XlXSXFXVXsXsX`.-X-X`.sXsX).c.{.k.k.k.9XwXFXFXbXqXl.HXHXHXHXHXHXHXHXHXHXHXHXHXHXHX",
"HXHXHXHXHXHXHXHXHXHXHXHXHXjXpXHXHXu.1X3XvXDXxX8X6Xu.6X2XhXhXsXjXhXsXhXhXsX:X:X0XiXMXFXFXvX9Xk.HXHXHXHXHXHXHXHXHXHXHXHXHXHXHXHXHX",
"HXHXHXHXHXHXHXHXHXHXHXHXHXHXHXHXHXHXHXu.u.5XzXDXFXDXxX:XjXhX:XVXhX9XjXhXhXCXDXSXDXxXiX:X{.HXHXHXHXHXHXHXHXHXHXHXHXHXHXHXHXHXHXHX",
"HXHXHXHXHXHXHXHXHXHXHXHXHXHXHXHXHXHXHXHXHXHXi.u.6X5XzXcXiXDXwX0XBXdX0XfXmXxXcX7X3X:XHXHXHXHXHXHXHXHXHXHXHXHXHXHXHXHXHXHXHXHXHXHX",
"HXHXHXHXHXHXHXHXHXHXHXHXHXHXHXHXHXHXHXHXHXHXHXHXHXHXu.i.i.u.u.i.6X4X4Xi.4X4XHXHXHXHXHXHXHXHXHXHXHXHXHXHXHXHXHXHXHXHXHXHXHXHXHXHX",
"HXHXHXHXHXHXHXHXHXHXHXHXHXHXHXHXHXHXHXHXHXHXHXHXHXHXHXHXHXHXHXHXHXHXHXHXHXHXHXHXHXHXHXHXHXHXHXHXHXHXHXHXHXHXHXHXHXHXHXHXHXHXHXHX"
};
