/* XPM */
static char *result[] = {
/* columns rows colors chars-per-pixel */
"16 16 188 2 ",
"   c #295D1A",
".  c #6DA927",
"X  c #6EAC2D",
"o  c #6FB222",
"O  c #75B12C",
"+  c #67AF3E",
"@  c #70B130",
"#  c #71B532",
"$  c #76B530",
"%  c #75B734",
"&  c #77B634",
"*  c #7ABD32",
"=  c #7ABA35",
"-  c #7BBB35",
";  c #79BB36",
":  c #7BBB36",
">  c #7CBA34",
",  c #78BD36",
"<  c #7ABC36",
"1  c #7ABD37",
"2  c #7BBE36",
"3  c #7CBC36",
"4  c #7DBD36",
"5  c #7DBF37",
"6  c #7DC634",
"7  c #7DC437",
"8  c #7CC139",
"9  c #A89826",
"0  c #8BB12D",
"q  c #82BD3B",
"w  c #81B93F",
"e  c #95B93F",
"r  c #85C026",
"t  c #98CE2D",
"y  c #92D02D",
"u  c #96D52D",
"i  c #95D62E",
"p  c #95DA2D",
"a  c #98DC2F",
"s  c #81C73C",
"d  c #80CE3C",
"f  c #82D039",
"g  c #8FD13E",
"h  c #94D73D",
"j  c #AED73A",
"k  c #B7DD3D",
"l  c #84BC41",
"z  c #90BF46",
"x  c #ACA346",
"c  c #ACA644",
"v  c #BBAA5C",
"b  c #AEB95F",
"n  c #98BA76",
"m  c #C48A5F",
"M  c #91CA40",
"N  c #92CE4A",
"B  c #9BD743",
"V  c #99DC51",
"C  c #A7D746",
"Z  c #A1D44E",
"A  c #B6DF46",
"S  c #A5C75F",
"D  c #B4D753",
"F  c #ABE64E",
"G  c #BDE249",
"H  c #AAEB55",
"J  c #BAE650",
"K  c #BFE650",
"L  c #A3C660",
"P  c #ACCC6E",
"I  c #BCD965",
"U  c #BBC974",
"Y  c #A8D97D",
"T  c #BDE162",
"R  c #B5E36A",
"E  c #BDE271",
"W  c #CDEA49",
"Q  c #C9F654",
"!  c #DDC76E",
"~  c #C4D469",
"^  c #C8DF6A",
"/  c #D2D064",
"(  c #CDED6A",
")  c #C4F166",
"_  c #D1F562",
"`  c #D6FD60",
"'  c #DAF867",
"]  c #D1F46A",
"[  c #DEFE68",
"{  c #EBFF76",
"}  c #E2F779",
"|  c #97DA87",
" . c #AFD78A",
".. c #BCD091",
"X. c #BFDD93",
"o. c #95E085",
"O. c #B3E29F",
"+. c #B8EFA5",
"@. c #B7FFBD",
"#. c #C1DF90",
"$. c #FBD79A",
"%. c #C3E088",
"&. c #D5E38E",
"*. c #DFF69D",
"=. c #EFF187",
"-. c #E0F880",
";. c #E1F79D",
":. c #D8CBA0",
">. c #C2D0A4",
",. c #C6D9A0",
"<. c #CEDDA9",
"1. c #D6D9B1",
"2. c #E6D7AF",
"3. c #E6CDB8",
"4. c #EAD8BA",
"5. c #C0E2B8",
"6. c #DCEFBB",
"7. c #D2F0B1",
"8. c #D8F3B9",
"9. c #FAE4A6",
"0. c #EAE7B6",
"q. c #E4E9B2",
"w. c #E5EDB2",
"e. c #EAEEB6",
"r. c #E5E0B8",
"t. c #E3F1B0",
"y. c #E9F1B5",
"u. c #B4FFC5",
"i. c #B7FFC4",
"p. c #B8FFC3",
"a. c #BFFFD2",
"s. c #B1FCEE",
"d. c #B3FCF0",
"f. c #BAF9F0",
"g. c #DFCEC7",
"h. c #EAD4CB",
"j. c #CCEFCA",
"k. c #DCECC8",
"l. c #CFF6C0",
"z. c #C6FEC3",
"x. c #C8FEC4",
"c. c #C1FFCA",
"v. c #C0FFCF",
"b. c #D1FFC2",
"n. c #D1FEC4",
"m. c #D4FFC7",
"M. c #DCFECD",
"N. c #C2EFDE",
"B. c #C3FFD5",
"V. c #CCF3DC",
"C. c #D8F9D2",
"Z. c #DEFBD5",
"A. c #EDEAC0",
"S. c #E5EECE",
"D. c #E1F4C2",
"F. c #FDF2C8",
"G. c #E1EDD2",
"H. c #F4E0D6",
"J. c #F3E8D6",
"K. c #F3E4DF",
"L. c #F1EDDC",
"P. c #E8F1D6",
"I. c #EAF6D6",
"U. c #C3FAED",
"Y. c #D1F7EB",
"T. c #D7F3EC",
"R. c #D0FFEC",
"E. c #F7EFE0",
"W. c #ECF6E1",
"Q. c #E6F8E3",
"!. c #EDFFE3",
"~. c #E9FFEA",
"^. c #F0FFE6",
"/. c #F1F1EB",
"(. c #F7F4E9",
"). c #F4F8ED",
"_. c #E5FFF7",
"`. c #F2FEF4",
"'. c #F8FAF4",
"]. c #F9FBF4",
"[. c #FDFCFA",
"{. c #FDFDFA",
"}. c #FDFDFC",
"|. c #FCFFFD",
" X c #FEFFFE",
".X c #FEFFFF",
"XX c white",
"oX c None",
/* pixels */
"oXoXoXoXoXoX^.!.~._.oXoXoXoXoXoX",
"oXoXoXoXn.z.@.p.i.u.a.R.oXoXoXoX",
"oXoXoX8.C.`.|..X.X].Q.B.v.oXoXoX",
"oXoXw.W. XXXXX[.G.S z L  .c.oXoX",
"oXe.S. XE.(.k.U q 5 = 4 X | x.oX",
"oXr.'.}.$.! M N w % 1 < - l +.oX",
"H.3.).#.~ D Z 7.+ 8 , ; : $ o.m.",
"K.:.B y j G E n   s # @ & > Y b.",
"/.C 9 i k W J V d f 7 2 3 . O.b.",
"I.a p u t A ( -.] g 6 * O b l.M.",
"oXX.,.v c 0 } { [ K o e >.L.6.oX",
"oXU.T.m x r ' ` Q I 1.J.{.P.y.oX",
"oXoXd.5.P ..&._ F h / 9.A.q.oXoX",
"oXoXs.%.T ^ =.) H R t.4.2.0.oXoX",
"oXoXoXF.D.j.Z.;.*.<.g.h.oXoXoXoX",
"oXoXoXoXoXoXf.N.V.Y.oXoXoXoXoXoX"
};
