/* XPM */
static char *result[] = {
/* columns rows colors chars-per-pixel */
"32 32 227 2 ",
"   c #121D0B",
".  c #253712",
"X  c #2D4411",
"o  c #AC691F",
"O  c #9D7924",
"+  c #E9525E",
"@  c #F0787D",
"#  c #318B1D",
"$  c #60941A",
"%  c #65A81A",
"&  c #77B818",
"*  c #6E9C2E",
"=  c #53AB2F",
"-  c #65A42A",
";  c #6AA827",
":  c #7EAD2D",
">  c #73B32D",
",  c #73B524",
"<  c #6DAC30",
"1  c #6BA333",
"2  c #7BAE34",
"3  c #73B433",
"4  c #78B731",
"5  c #76B932",
"6  c #7CBC36",
"7  c #7BBD39",
"8  c #60B92A",
"9  c #7EC017",
"0  c #56C833",
"q  c #7DC336",
"w  c #7DC239",
"e  c #7ECA37",
"r  c #76C02C",
"t  c #7BB04E",
"y  c #7EE956",
"u  c #81BD1F",
"i  c #AA9B27",
"p  c #85BE27",
"a  c #87BB38",
"s  c #81C41D",
"d  c #8CC926",
"f  c #93CC2D",
"g  c #90C42B",
"h  c #94D32D",
"j  c #93D92D",
"k  c #99DA2F",
"l  c #81C435",
"z  c #82CC39",
"x  c #86C83C",
"c  c #92C937",
"v  c #88D73A",
"b  c #97DC30",
"n  c #8FD62E",
"m  c #A1CF35",
"M  c #93E33E",
"N  c #A0E030",
"B  c #B79D50",
"V  c #8DB947",
"C  c #91BF41",
"Z  c #98B55A",
"A  c #A7BD4C",
"S  c #ADAA4D",
"D  c #ADB66F",
"F  c #DD906F",
"G  c #DD8F76",
"H  c #8ACB42",
"J  c #96CD44",
"K  c #99D245",
"L  c #96C759",
"P  c #8FD653",
"I  c #A2D446",
"U  c #A8DC48",
"Y  c #B6DA48",
"T  c #B9C953",
"R  c #AADB56",
"E  c #B6DF59",
"W  c #9FE347",
"Q  c #9CE947",
"!  c #A1E548",
"~  c #B6E546",
"^  c #A9E354",
"/  c #B6E757",
"(  c #B4F15D",
")  c #90CB71",
"_  c #A3C868",
"`  c #ACD768",
"'  c #B3D172",
"]  c #B6E264",
"[  c #C7D051",
"{  c #CBEA49",
"}  c #C2E648",
"|  c #D4EB4B",
" . c #DBEF4C",
".. c #C4EB54",
"X. c #C3EC5A",
"o. c #CAF756",
"O. c #D2FB5B",
"+. c #CADF71",
"@. c #CCCF6E",
"#. c #EAC976",
"$. c #F5C279",
"%. c #C5E969",
"&. c #DDFF67",
"*. c #C7EC74",
"=. c #D3E978",
"-. c #C8F377",
";. c #D4F27A",
":. c #E1FF6D",
">. c #E6FE75",
",. c #EAFF75",
"<. c #EDFF7C",
"1. c #E5F778",
"2. c #B3B899",
"3. c #EB8886",
"4. c #DFB194",
"5. c #E4BC9C",
"6. c #E2B39A",
"7. c #E3AA9C",
"8. c #FB9EAD",
"9. c #DAB1A7",
"0. c #E1B1A6",
"q. c #ADD286",
"w. c #B4D981",
"e. c #BACA85",
"r. c #9EEC84",
"t. c #A2F39D",
"y. c #BAF299",
"u. c #B4F68C",
"i. c #BED9B0",
"p. c #96FFA4",
"a. c #9FFFAD",
"s. c #9AFFB8",
"d. c #A4FEA4",
"f. c #A9FDAE",
"g. c #B3FDAD",
"h. c #BAFDAC",
"j. c #B6F4A6",
"k. c #ACFFBA",
"l. c #B8FDB9",
"z. c #A5E7B5",
"x. c #DFCA9B",
"c. c #DBD79A",
"v. c #CBD18D",
"b. c #FAD585",
"n. c #FCD698",
"m. c #EFD08C",
"M. c #D8E99A",
"N. c #DBF084",
"B. c #EDFF87",
"V. c #E6E69C",
"C. c #F4F191",
"Z. c #C6DCA5",
"A. c #DADCA3",
"S. c #CDD1B7",
"D. c #E5C8A4",
"F. c #EEDAAB",
"G. c #D4E4A9",
"H. c #D4E9A3",
"J. c #D9E7B7",
"K. c #D0F0AE",
"L. c #E7E9A7",
"P. c #F6E9BC",
"I. c #EEF3BF",
"U. c #F9FABD",
"Y. c #F5F6BD",
"T. c #EEE6AD",
"R. c #9CF5DC",
"E. c #ADFFC5",
"W. c #B8FFC5",
"Q. c #BCF8D9",
"!. c #89FFEE",
"~. c #97FEED",
"^. c #A7F8EA",
"/. c #BBFCE9",
"(. c #B7FFF5",
"). c #AEFEF2",
"_. c #C6DBC8",
"`. c #DAD4CB",
"'. c #E9D9C5",
"]. c #ECD5CD",
"[. c #DCECC7",
"{. c #DAE3C1",
"}. c #CEFDCC",
"|. c #C9F9C7",
" X c #D8FDC8",
".X c #CBFFDA",
"XX c #C9FFD3",
"oX c #D2F7D9",
"OX c #D4E9CD",
"+X c #EAE8C9",
"@X c #F2E5CD",
"#X c #F3E1C2",
"$X c #E8F7CA",
"%X c #FCF3C3",
"&X c #F7F7CB",
"*X c #EDE6DC",
"=X c #E9ECD8",
"-X c #F4E5D9",
";X c #F4EBDA",
":X c #E5FED6",
">X c #EAFFDA",
",X c #E6FAD7",
"<X c #F7F9D6",
"1X c #CDEFE4",
"2X c #D5FFE2",
"3X c #DAFFE6",
"4X c #D1FAEA",
"5X c #C8FDF4",
"6X c #D4FFF9",
"7X c #D8FDF7",
"8X c #CFF0E9",
"9X c #ECEBE6",
"0X c #F7EFE5",
"qX c #EDF4E4",
"wX c #E4FCE1",
"eX c #EDF9E9",
"rX c #E9F9EB",
"tX c #F5FDEB",
"yX c #F6F6E6",
"uX c #EDFFF3",
"iX c #E6FCF7",
"pX c #F7FCF3",
"aX c #FBFCF4",
"sX c #F5FFF9",
"dX c #FEFFFE",
"fX c #F8F4F0",
"gX c None",
/* pixels */
"gXgXgXgXgXgXgXgXgXgXgXgXgXgXgXgXgXgXgXgXgXgXgXgXgXgXgXgXgXgXgXgX",
"gXgXgXgXgXgXgXgXgXgXgX>XtXaXaXtXpXaXdXiX6XgXgXgXgXgXgXgXgXgXgXgX",
"gXgXgXgXgXgXgXgXh.:XeX Xh.d.p.p.p.p.a.E.2XsX7XgXgXgXgXgXgXgXgXgX",
"gXgXgXgXgXgXgX X:Xh.d.k.W..X2X3X3X2X.XW.s.s.Q.uX/.gXgXgXgXgXgXgX",
"gXgXgXgXgXgX>XK.j.}.wXuXsXdXdXdXdXdXdXsXrX.XE.s.XX2XgXgXgXgXgXgX",
"gXgXgXgXgX<XK.K.wXpXdXdXdXdXdXdXdXdXdX;X@XsXpX3XE.W.3XgXgXgXgXgX",
"gXgXgXgX&XM.J.tXdXdXdXdXdXdXdXdXdXdXZ.@.A L q.v.A.k.l.2XgXgXgXgX",
"gXgXgX$XL.J.eXdXdXdXdXdXdXdXdXyX{.q.a w 6 a 7 a A ) E.}.W.gXgXgX",
"gXgXV.&Xc.wXdXdXdXdXdXdXdXdX@Xm.C l 7 w 6 6 6 6 3 1 |.s.wXa.gXgX",
"gXgX&XM.[.aXdXdX@XF.@X=XZ.w.V a 7 7 w w > w 6 6 3 ; - ) h.}.gXgX",
"gXc.<Xx.qXdXdXaXn.m.$.@.c H x x 1 4 < - 6 6 5 7 6 4 3 _ r.eXgXgX",
"gX'.P.S.fXdXdXdXF.n.b.T J H J ` ` 2 w w 7 6 w 7 6 6 a 7 ) K.l.gX",
"gX-X5.].dXdXdX[.v.F.#.K K K K.y.y R w 7 w 5 7 5 6 6 4 < ) f. XgX",
"gX0X4.*XdXJ.J g g [ Y I K ] $XK.. 0 w 3 3 q 5 7 6 4 a < t a.:XgX",
"gXfX5.*Xw.n f f f } } } U M.K.2.  # H w < - - - < 4 6 6 V t.>XgX",
"gXaX5.' n b h n f | { m U H.u.X   = e e w 6 6 6 6 6 a 4 @.t.:XgX",
"gXdX@.j g o k h f  .{ } ~ =.H.8 = P e e q w 6 5 6 6 4 ; Z f.,XgX",
"gXdXU k i i k h h |  .{ ~ N M Q Q v v e e q w 6 q 6 < $ {.j.>XgX",
"gXtXN k N k k h h Y { } { X.;.;.*.^ H e z q q 5 > 4 > 2 eXj.>XgX",
"gX$Xk j j h h h d s c / N.N.B.<.,.>.O.8 r l l 4 ; : #.x.,Xj.:XgX",
"gX$Xk _ _ L p s s & & & +.<.,.,.,.&.O.U % l l ; 1 D D.qX[.K. XgX",
"gXoXfX_.fX].8.3.F F B a <.<.,.,.:.O...Y % , T S 9XdXdXeXG.$XgXgX",
"gXgX7XQ.8XfX7.+ @ S p f >.,.:.&.O...{ ' S._ D.*XdXdXaX=XM.&XgXgX",
"gXgX~.7X^.uXZ o p p p & ..O.O.o.o.o.~ e.P.-X0XdXfXdXqXG.&XL.gXgX",
"gXgXgX(.^./.S._ a a : Z i.%.X.X./ ! v p #.b.b.P.P.;XJ.L.&XgXgXgX",
"gXgXgXgX6X~.5XoXH.H.*X-XT.=.&.>./ Q ! W U T n.%X&XA.c.<XgXgXgXgX",
"gXgXgXgX!.7Xz.R R R ^ m.b.1.>./ ! ! ! / -.;.&X#Xx.c.<XV.gXgXgXgX",
"gXgXgXgXgXR.F.+.%.=./ =.C.B.%.( ( ( R J.fX;X'.7.D.yXc.gXgXgXgXgX",
"gXgXgXgXgXgX%X%XV.%XL.G.U.U.;.*.-.*.] *X`.9.0.].-XD.gXgXgXgXgXgX",
"gXgXgXgXgXgXgX%XQ.oX1X).(.4X&XY.U.<XA.i.`.9X9X].gXgXgXgXgXgXgXgX",
"gXgXgXgXgXgXgXgXgXgX!.(.5X8XqXOX<X=XiX7X1X_.gXgXgXgXgXgXgXgXgXgX",
"gXgXgXgXgXgXgXgXgXgXgXgXgXgXgXgXgXgXgXgXgXgXgXgXgXgXgXgXgXgXgXgX"
};
